<svg width="6260" height="5038" viewBox="0 0 6260 5038" fill="none" xmlns="http://www.w3.org/2000/svg" xmlns:xlink="http://www.w3.org/1999/xlink">
<path d="M5752.092,2398.956C5752.092,3220.756 4859.452,3886.956 3758.328,3886.956C2657.208,3886.956 1764.572,3220.756 1764.572,2398.956C1764.572,1577.156 2657.208,910.956 3758.328,910.956C4859.452,910.956 5752.092,1577.156 5752.092,2398.956Z" transform="rotate(-137.249 3758.328 2398.956)" fill="#08B8CB" fill-opacity="0.57"/>
<path d="M6258.092,2432.956C6258.092,3254.756 5365.452,3920.956 4264.328,3920.956C3163.208,3920.956 2270.572,3254.756 2270.572,2432.956C2270.572,1611.156 3163.208,944.956 4264.328,944.956C5365.452,944.956 6258.092,1611.156 6258.092,2432.956Z" transform="rotate(-137.249 4264.328 2432.956)" fill="#08B8CB" fill-opacity="0.57"/>
<path d="M4982.394,2867.166C4982.394,3688.966 4089.754,4355.166 2988.63,4355.166C1887.51,4355.166 994.874,3688.966 994.874,2867.166C994.874,2045.366 1887.51,1379.166 2988.63,1379.166C4089.754,1379.166 4982.394,2045.366 4982.394,2867.166Z" transform="rotate(-170.584 2988.63 2867.166)" fill="#08B8CB" fill-opacity="0.57"/>
<path d="M4382.394,3257.166C4382.394,4078.966 3489.754,4745.166 2388.63,4745.166C1287.51,4745.166 394.874,4078.966 394.874,3257.166C394.874,2435.366 1287.51,1769.166 2388.63,1769.166C3489.754,1769.166 4382.394,2435.366 4382.394,3257.166Z" transform="rotate(-170.584 2388.63 3257.166)" fill="#08B8CB" fill-opacity="0.57"/>
<path d="M3987.346,3548.59C3987.346,4370.39 3094.706,5036.59 1993.582,5036.59C892.462,5036.59 -0.174,4370.39 -0.174,3548.59C-0.174,2726.79 892.462,2060.59 1993.582,2060.59C3094.706,2060.59 3987.346,2726.79 3987.346,3548.59Z" transform="rotate(-185.478 1993.582 3548.59)" fill="#08B8CB" fill-opacity="0.57"/>
</svg>
