<svg width="72" height="84" viewBox="0 0 72 84" fill="none" xmlns="http://www.w3.org/2000/svg" xmlns:xlink="http://www.w3.org/1999/xlink">
<path d="M63.84,22.4L61.108,19.831C61.068,19.873 61.03,19.916 60.993,19.96L63.84,22.4ZM35.22,55.79L32.373,53.349L32.372,53.349L35.22,55.79ZM24.27,43.05L21.422,40.609L21.422,40.609L24.27,43.05ZM52.92,9.625L55.767,12.065C55.802,12.025 55.836,11.984 55.869,11.942L52.92,9.625ZM55.434,7.5L57.185,10.816L57.185,10.816L55.434,7.5ZM58.463,6.699L58.371,2.95L58.37,2.95L58.463,6.699ZM65.813,12.376L69.361,11.161L69.361,11.161L65.813,12.376ZM65.668,19.472L69.161,20.837L69.161,20.836L65.668,19.472ZM60.993,19.96L32.373,53.349L38.067,58.23L66.687,24.841L60.993,19.96ZM32.372,53.349C31.757,54.067 29.923,55.051 27.546,55.512C26.449,55.725 25.507,55.768 24.863,55.702C24.035,55.617 24.378,55.44 24.867,56.009L19.172,60.89C20.606,62.563 22.715,63.02 24.094,63.162C25.657,63.323 27.363,63.187 28.974,62.875C32.011,62.286 35.832,60.838 38.067,58.23L32.372,53.349ZM24.867,56.009C25.115,56.299 25.122,56.469 25.061,56.256C25.011,56.081 24.949,55.765 24.912,55.29C24.838,54.339 24.887,53.076 25.081,51.69C25.274,50.315 25.592,48.939 25.995,47.771C26.418,46.544 26.845,45.808 27.117,45.49L21.422,40.609C20.269,41.955 19.466,43.699 18.905,45.326C18.323,47.013 17.903,48.866 17.653,50.65C17.405,52.423 17.308,54.248 17.434,55.872C17.498,56.684 17.623,57.528 17.853,58.327C18.071,59.089 18.452,60.05 19.172,60.89L24.867,56.009ZM27.117,45.49L55.767,12.065L50.073,7.184L21.422,40.609L27.117,45.49ZM55.869,11.942C56.271,11.43 56.726,11.059 57.185,10.816L53.684,4.183C52.238,4.947 50.982,6.021 49.971,7.308L55.869,11.942ZM57.185,10.816C57.642,10.575 58.106,10.458 58.555,10.447L58.37,2.95C56.728,2.99 55.132,3.419 53.683,4.184L57.185,10.816ZM58.555,10.447C59.003,10.436 59.466,10.53 59.922,10.744L63.112,3.956C61.628,3.259 60.013,2.909 58.371,2.95L58.555,10.447ZM59.922,10.744C60.381,10.96 60.842,11.303 61.255,11.787L66.957,6.914C65.894,5.67 64.592,4.652 63.112,3.956L59.922,10.744ZM61.255,11.787C61.67,12.272 62.022,12.882 62.265,13.591L69.361,11.161C68.828,9.605 68.018,8.156 66.957,6.914L61.255,11.787ZM62.265,13.591C62.508,14.301 62.63,15.077 62.614,15.865L70.113,16.018C70.146,14.367 69.893,12.717 69.361,11.161L62.265,13.591ZM62.614,15.865C62.598,16.653 62.445,17.418 62.175,18.108L69.161,20.836C69.759,19.306 70.079,17.669 70.113,16.018L62.614,15.865ZM62.176,18.107C61.906,18.797 61.534,19.378 61.108,19.831L66.572,24.969C67.691,23.778 68.563,22.367 69.161,20.837L62.176,18.107Z" fill="#00B5EC"/>
<path d="M33,17.75C35.071,17.75 36.75,16.071 36.75,14C36.75,11.929 35.071,10.25 33,10.25L33,17.75ZM9.515,18.101L6.668,15.66L6.668,15.66L9.515,18.101ZM9.515,72.899L12.362,70.459L12.362,70.459L9.515,72.899ZM63.75,45.5C63.75,43.429 62.071,41.75 60,41.75C57.929,41.75 56.25,43.429 56.25,45.5L63.75,45.5ZM33,10.25L18,10.25L18,17.75L33,17.75L33,10.25ZM18,10.25C13.62,10.25 9.561,12.285 6.668,15.66L12.362,20.541C13.97,18.665 16.015,17.75 18,17.75L18,10.25ZM6.668,15.66C3.79,19.017 2.25,23.463 2.25,28L9.75,28C9.75,25.111 10.739,22.435 12.362,20.541L6.668,15.66ZM2.25,28L2.25,63L9.75,63L9.75,28L2.25,28ZM2.25,63C2.25,67.537 3.79,71.983 6.668,75.34L12.362,70.459C10.739,68.565 9.75,65.889 9.75,63L2.25,63ZM6.668,75.34C9.561,78.715 13.62,80.75 18,80.75L18,73.25C16.015,73.25 13.97,72.335 12.362,70.459L6.668,75.34ZM18,80.75L51,80.75L51,73.25L18,73.25L18,80.75ZM51,80.75C55.796,80.75 59.236,78.329 61.258,74.72C63.133,71.373 63.75,67.127 63.75,63L56.25,63C56.25,66.573 55.682,69.327 54.714,71.055C53.894,72.521 52.834,73.25 51,73.25L51,80.75ZM63.75,63L63.75,45.5L56.25,45.5L56.25,63L63.75,63Z" fill="#00B5EC"/>
</svg>
