<svg width="86" height="86" viewBox="0 0 86 86" fill="none" xmlns="http://www.w3.org/2000/svg" xmlns:xlink="http://www.w3.org/1999/xlink">
<path d="M78.834,23.729L78.834,61.794C78.834,65.782 76.275,69.77 72.253,71.22L53.97,78.108C52.873,78.47 51.776,78.833 50.314,78.833C48.485,78.833 46.292,78.108 44.463,77.02C43.732,76.295 42.635,75.57 42.269,74.845L28.375,74.845C22.89,74.845 18.137,70.495 18.137,64.694L18.137,61.069C18.137,59.619 19.234,58.169 21.062,58.169C22.89,58.169 23.987,59.256 23.987,61.069L23.987,64.694C23.987,67.232 26.181,69.044 28.375,69.044L40.441,69.044L40.441,16.841L28.375,16.841C25.815,16.841 23.987,18.654 23.987,21.191L23.987,24.816C23.987,26.267 22.89,27.717 21.062,27.717C19.234,27.717 18.137,26.267 18.137,24.816L18.137,21.191C18.137,15.753 22.525,11.041 28.375,11.041L42.269,11.041C43.001,10.315 43.732,9.59 44.463,8.865C47.389,7.053 50.679,6.69 53.97,7.778L72.253,14.666C75.909,15.753 78.834,19.741 78.834,23.729Z" fill="#EC0000"/>
<path d="M17.404,53.095C16.673,53.095 15.942,52.732 15.576,52.37L8.263,45.119C7.897,44.756 7.897,44.394 7.532,44.394C7.532,44.032 7.166,43.669 7.166,43.307C7.166,42.944 7.166,42.581 7.532,42.219C7.532,41.856 7.897,41.494 8.263,41.494L15.576,34.243C16.673,33.156 18.501,33.156 19.598,34.243C20.695,35.331 20.695,37.144 19.598,38.231L17.038,40.769L32.03,40.769C33.493,40.769 34.955,41.856 34.955,43.669C34.955,45.482 33.493,45.844 32.03,45.844L16.673,45.844L19.232,48.382C20.329,49.469 20.329,51.282 19.232,52.37C18.867,52.732 18.135,53.095 17.404,53.095Z" fill="#EC0000"/>
</svg>
