<svg width="86" height="86" viewBox="0 0 86 86" fill="none" xmlns="http://www.w3.org/2000/svg" xmlns:xlink="http://www.w3.org/1999/xlink">
<path d="M78.834,23.729L78.834,61.795C78.834,65.782 76.275,69.77 72.253,71.22L53.97,78.108C52.873,78.471 51.776,78.833 50.314,78.833C48.485,78.833 46.292,78.108 44.463,77.021C43.732,76.296 42.635,75.571 42.269,74.845L28.375,74.845C22.89,74.845 18.137,70.495 18.137,64.695L18.137,61.07C18.137,59.619 19.234,58.169 21.062,58.169C22.89,58.169 23.987,59.257 23.987,61.07L23.987,64.695C23.987,67.233 26.181,69.045 28.375,69.045L40.441,69.045L40.441,16.842L28.375,16.842C25.815,16.842 23.987,18.654 23.987,21.192L23.987,24.817C23.987,26.267 22.89,27.717 21.062,27.717C19.234,27.717 18.137,26.267 18.137,24.817L18.137,21.192C18.137,15.754 22.525,11.041 28.375,11.041L42.269,11.041C43.001,10.316 43.732,9.591 44.463,8.866C47.389,7.053 50.679,6.691 53.97,7.778L72.253,14.666C75.909,15.754 78.834,19.742 78.834,23.729Z" fill="#EC0000"/>
<path d="M17.404,53.094C16.673,53.094 15.942,52.732 15.576,52.369L8.263,45.119C7.897,44.756 7.897,44.394 7.532,44.394C7.532,44.031 7.166,43.668 7.166,43.306C7.166,42.943 7.166,42.581 7.532,42.219C7.532,41.856 7.897,41.493 8.263,41.493L15.576,34.243C16.673,33.155 18.501,33.155 19.598,34.243C20.695,35.33 20.695,37.143 19.598,38.231L17.038,40.768L32.03,40.768C33.493,40.768 34.955,41.856 34.955,43.668C34.955,45.481 33.493,45.844 32.03,45.844L16.673,45.844L19.232,48.381C20.329,49.469 20.329,51.281 19.232,52.369C18.867,52.732 18.135,53.094 17.404,53.094Z" fill="#EC0000"/>
</svg>
