<svg width="86" height="86" viewBox="0 0 86 86" fill="none" xmlns="http://www.w3.org/2000/svg" xmlns:xlink="http://www.w3.org/1999/xlink">
<path d="M78.834,23.73L78.834,61.795C78.834,65.783 76.275,69.771 72.253,71.221L53.97,78.109C52.873,78.471 51.776,78.834 50.314,78.834C48.485,78.834 46.292,78.109 44.463,77.021C43.732,76.296 42.635,75.571 42.269,74.846L28.375,74.846C22.89,74.846 18.137,70.496 18.137,64.695L18.137,61.07C18.137,59.62 19.234,58.17 21.062,58.17C22.89,58.17 23.987,59.257 23.987,61.07L23.987,64.695C23.987,67.233 26.181,69.045 28.375,69.045L40.441,69.045L40.441,16.842L28.375,16.842C25.815,16.842 23.987,18.655 23.987,21.192L23.987,24.817C23.987,26.268 22.89,27.718 21.062,27.718C19.234,27.718 18.137,26.268 18.137,24.817L18.137,21.192C18.137,15.754 22.525,11.041 28.375,11.041L42.269,11.041C43.001,10.316 43.732,9.591 44.463,8.866C47.389,7.054 50.679,6.691 53.97,7.779L72.253,14.667C75.909,15.754 78.834,19.742 78.834,23.73Z" fill="#EC0000"/>
<path d="M17.404,53.094C16.673,53.094 15.942,52.731 15.576,52.369L8.263,45.118C7.897,44.756 7.897,44.393 7.532,44.393C7.532,44.031 7.166,43.668 7.166,43.306C7.166,42.943 7.166,42.58 7.532,42.218C7.532,41.856 7.897,41.493 8.263,41.493L15.576,34.242C16.673,33.155 18.501,33.155 19.598,34.242C20.695,35.33 20.695,37.143 19.598,38.23L17.038,40.768L32.03,40.768C33.493,40.768 34.955,41.856 34.955,43.668C34.955,45.481 33.493,45.843 32.03,45.843L16.673,45.843L19.232,48.381C20.329,49.468 20.329,51.281 19.232,52.369C18.867,52.731 18.135,53.094 17.404,53.094Z" fill="#EC0000"/>
</svg>
