<svg width="86" height="86" viewBox="0 0 86 86" fill="none" xmlns="http://www.w3.org/2000/svg" xmlns:xlink="http://www.w3.org/1999/xlink">
<path d="M78.834,23.729L78.834,61.795C78.834,65.782 76.275,69.77 72.253,71.22L53.97,78.108C52.873,78.471 51.776,78.833 50.314,78.833C48.485,78.833 46.292,78.108 44.463,77.021C43.732,76.296 42.635,75.571 42.269,74.845L28.375,74.845C22.89,74.845 18.137,70.495 18.137,64.695L18.137,61.07C18.137,59.619 19.234,58.169 21.062,58.169C22.89,58.169 23.987,59.257 23.987,61.07L23.987,64.695C23.987,67.233 26.181,69.045 28.375,69.045L40.441,69.045L40.441,16.841L28.375,16.841C25.815,16.841 23.987,18.654 23.987,21.192L23.987,24.817C23.987,26.267 22.89,27.717 21.062,27.717C19.234,27.717 18.137,26.267 18.137,24.817L18.137,21.192C18.137,15.754 22.525,11.041 28.375,11.041L42.269,11.041C43.001,10.316 43.732,9.591 44.463,8.866C47.389,7.053 50.679,6.691 53.97,7.778L72.253,14.666C75.909,15.754 78.834,19.742 78.834,23.729Z" fill="#EC0000"/>
<path d="M17.406,53.094C16.675,53.094 15.943,52.732 15.578,52.369L8.265,45.119C7.899,44.756 7.899,44.394 7.534,44.394C7.534,44.031 7.168,43.668 7.168,43.306C7.168,42.944 7.168,42.581 7.534,42.219C7.534,41.856 7.899,41.493 8.265,41.493L15.578,34.243C16.675,33.155 18.503,33.155 19.6,34.243C20.697,35.331 20.697,37.143 19.6,38.231L17.04,40.768L32.032,40.768C33.495,40.768 34.957,41.856 34.957,43.668C34.957,45.481 33.495,45.844 32.032,45.844L16.675,45.844L19.234,48.381C20.331,49.469 20.331,51.282 19.234,52.369C18.869,52.732 18.137,53.094 17.406,53.094Z" fill="#EC0000"/>
</svg>
