<svg width="86" height="86" viewBox="0 0 86 86" fill="none" xmlns="http://www.w3.org/2000/svg" xmlns:xlink="http://www.w3.org/1999/xlink">
<path d="M78.833,23.73L78.833,61.795C78.833,65.783 76.274,69.771 72.252,71.22L53.969,78.109C52.872,78.471 51.775,78.833 50.313,78.833C48.484,78.833 46.291,78.109 44.462,77.021C43.731,76.296 42.634,75.571 42.268,74.846L28.374,74.846C22.889,74.846 18.136,70.495 18.136,64.695L18.136,61.07C18.136,59.62 19.233,58.169 21.061,58.169C22.889,58.169 23.986,59.257 23.986,61.07L23.986,64.695C23.986,67.233 26.18,69.045 28.374,69.045L40.44,69.045L40.44,16.842L28.374,16.842C25.814,16.842 23.986,18.654 23.986,21.192L23.986,24.817C23.986,26.267 22.889,27.717 21.061,27.717C19.233,27.717 18.136,26.267 18.136,24.817L18.136,21.192C18.136,15.754 22.524,11.041 28.374,11.041L42.268,11.041C43,10.316 43.731,9.591 44.462,8.866C47.388,7.053 50.678,6.691 53.969,7.779L72.252,14.667C75.908,15.754 78.833,19.742 78.833,23.73Z" fill="#EC0000"/>
<path d="M17.405,53.094C16.674,53.094 15.943,52.732 15.577,52.369L8.264,45.118C7.898,44.756 7.898,44.393 7.533,44.393C7.533,44.031 7.167,43.668 7.167,43.306C7.167,42.943 7.167,42.581 7.533,42.218C7.533,41.856 7.898,41.493 8.264,41.493L15.577,34.243C16.674,33.155 18.502,33.155 19.599,34.243C20.696,35.33 20.696,37.143 19.599,38.231L17.039,40.768L32.031,40.768C33.494,40.768 34.956,41.856 34.956,43.668C34.956,45.481 33.494,45.844 32.031,45.844L16.674,45.844L19.233,48.381C20.33,49.469 20.33,51.281 19.233,52.369C18.868,52.732 18.136,53.094 17.405,53.094Z" fill="#EC0000"/>
</svg>
