<svg width="66" height="66" viewBox="0 0 66 66" fill="none" xmlns="http://www.w3.org/2000/svg" xmlns:xlink="http://www.w3.org/1999/xlink">
<path d="M6.422,20.465L6.422,32.179L13.265,25.586L6.422,20.465Z" fill="#00B5EC"/>
<path d="M10.354,18.51L18.627,24.701L18.627,18.51L10.354,18.51Z" fill="#00B5EC"/>
<path d="M16.446,27.967L9.322,34.83L18.627,34.83L18.627,29.599L16.446,27.967Z" fill="#00B5EC"/>
<path d="M52.703,11.764L52.703,5.228L43.888,5.228L43.888,11.764L32.741,11.764L32.741,8.168L32.741,1.961L32.741,0L21.279,0L21.279,8.168L28.82,8.168L28.82,11.764L22.549,11.764L22.549,34.798L24.26,34.798L43.888,34.798L43.888,66L52.703,66L52.703,34.798L59.578,34.798L59.578,11.764L52.703,11.764Z" fill="#00B5EC"/>
</svg>
