<svg width="66" height="66" viewBox="0 0 66 66" fill="none" xmlns="http://www.w3.org/2000/svg" xmlns:xlink="http://www.w3.org/1999/xlink">
<path d="M6.422,20.465L6.422,32.179L13.265,25.586L6.422,20.465Z" fill="#4DB848"/>
<path d="M10.355,18.509L18.629,24.701L18.629,18.509L10.355,18.509Z" fill="#4DB848"/>
<path d="M16.448,27.966L9.324,34.83L18.629,34.83L18.629,29.599L16.448,27.966Z" fill="#4DB848"/>
<path d="M52.701,11.764L52.701,5.228L43.886,5.228L43.886,11.764L32.739,11.764L32.739,8.168L32.739,1.961L32.739,0L21.277,0L21.277,8.168L28.818,8.168L28.818,11.764L22.547,11.764L22.547,34.798L24.258,34.798L43.886,34.798L43.886,66L52.701,66L52.701,34.798L59.576,34.798L59.576,11.764L52.701,11.764Z" fill="#4DB848"/>
</svg>
