<svg width="836" height="836" viewBox="0 0 836 836" fill="none" xmlns="http://www.w3.org/2000/svg" xmlns:xlink="http://www.w3.org/1999/xlink">
<path d="M317.362,50.171C307.184,58.846 302.094,63.184 296.658,66.827C284.196,75.179 270.202,80.975 255.486,83.881C249.066,85.149 242.4,85.68 229.068,86.744C195.57,89.418 178.82,90.754 164.847,95.69C132.527,107.105 107.105,132.527 95.69,164.847C90.754,178.82 89.418,195.57 86.744,229.068C85.68,242.4 85.149,249.066 83.881,255.486C80.975,270.202 75.179,284.196 66.827,296.658C63.184,302.094 58.847,307.182 50.171,317.362C28.375,342.94 17.477,355.726 11.086,369.098C-3.695,400.026 -3.695,435.974 11.086,466.902C17.477,480.274 28.375,493.06 50.171,518.638C58.845,528.816 63.184,533.908 66.827,539.342C75.179,551.802 80.975,565.796 83.881,580.514C85.149,586.934 85.68,593.602 86.744,606.932C89.418,640.43 90.754,657.18 95.69,671.154C107.105,703.474 132.527,728.896 164.847,740.312C178.82,745.244 195.57,746.582 229.068,749.256C242.4,750.318 249.066,750.854 255.486,752.12C270.202,755.024 284.196,760.822 296.658,769.174C302.094,772.816 307.182,777.154 317.362,785.828C342.94,807.626 355.726,818.524 369.098,824.914C400.026,839.696 435.974,839.696 466.902,824.914C480.274,818.524 493.06,807.626 518.638,785.828C528.816,777.154 533.908,772.816 539.342,769.174C551.802,760.822 565.796,755.024 580.514,752.12C586.934,750.854 593.602,750.318 606.932,749.256C640.43,746.582 657.18,745.244 671.154,740.312C703.474,728.896 728.896,703.474 740.312,671.154C745.244,657.18 746.582,640.43 749.256,606.932C750.318,593.602 750.854,586.934 752.12,580.514C755.024,565.796 760.822,551.802 769.174,539.342C772.816,533.908 777.154,528.816 785.828,518.638C807.626,493.06 818.524,480.274 824.914,466.902C839.696,435.974 839.696,400.026 824.914,369.098C818.524,355.726 807.626,342.94 785.828,317.362C777.154,307.182 772.816,302.094 769.174,296.658C760.822,284.196 755.024,270.202 752.12,255.486C750.854,249.066 750.318,242.4 749.256,229.068C746.582,195.57 745.244,178.82 740.312,164.847C728.896,132.527 703.474,107.105 671.154,95.69C657.18,90.754 640.43,89.418 606.932,86.744C593.602,85.68 586.934,85.149 580.514,83.881C565.796,80.975 551.802,75.179 539.342,66.827C533.908,63.184 528.816,58.847 518.638,50.171C493.06,28.375 480.274,17.477 466.902,11.086C435.974,-3.695 400.026,-3.695 369.098,11.086C355.726,17.477 342.94,28.375 317.362,50.171ZM600.812,328.68C614.096,315.394 614.096,293.854 600.812,280.568C587.528,267.284 565.984,267.284 552.7,280.568L349.962,483.308L283.298,416.646C270.012,403.362 248.472,403.362 235.188,416.646C221.902,429.93 221.902,451.47 235.188,464.758L325.906,555.476C339.19,568.76 360.73,568.76 374.018,555.476L600.812,328.68Z" clip-rule="evenodd" fill-rule="evenodd" fill="#00B5EC" fill-opacity="0.64"/>
</svg>
