<svg width="62" height="64" viewBox="0 0 62 64" fill="none" xmlns="http://www.w3.org/2000/svg" xmlns:xlink="http://www.w3.org/1999/xlink">
<path d="M56.663,27.275L56.663,14.786C56.663,6.623 49.926,0 41.638,0L20.393,0C12.117,0 5.368,6.636 5.368,14.786L5.368,27.275C2.214,28.802 0.006,32.006 0.006,35.74L0.006,62.007L20.67,62.007L20.67,59.42L41.335,59.42L41.335,62.007L62,62.007L62,35.74C62.025,32.006 59.817,28.789 56.663,27.275ZM15.511,38.756L15.511,43.928L15.511,56.847L5.178,56.847L5.178,35.74C5.178,33.722 6.591,32.031 8.484,31.603L8.509,31.603C8.837,31.527 9.14,31.489 9.43,31.489L11.247,31.489C13.593,31.489 15.511,33.394 15.511,35.753L15.511,38.756ZM41.348,43.916L20.683,43.916L20.683,38.743L41.348,38.743L41.348,43.916ZM46.52,56.834L46.52,43.916L46.52,38.743L46.52,35.728C46.52,33.381 48.425,31.464 50.784,31.464L52.588,31.464C52.879,31.464 53.181,31.502 53.509,31.577L53.535,31.577C55.427,32.006 56.84,33.697 56.84,35.715L56.84,56.834L46.52,56.834Z" fill="#4DB848"/>
</svg>
