<svg width="100" height="100" viewBox="0 0 100 100" fill="none" xmlns="http://www.w3.org/2000/svg" xmlns:xlink="http://www.w3.org/1999/xlink">
<path d="M72.358,89.997C74.2,92.054 77.361,92.229 79.418,90.387C81.476,88.545 81.65,85.384 79.808,83.326L72.358,89.997ZM20.191,83.326C18.349,85.383 18.523,88.545 20.581,90.387C22.638,92.229 25.799,92.054 27.641,89.997L20.191,83.326ZM79.808,83.326C72.491,75.154 61.844,70 50,70L50,80C58.883,80 66.858,83.854 72.358,89.997L79.808,83.326ZM50,70C38.156,70 27.508,75.154 20.191,83.326L27.641,89.997C33.141,83.854 41.118,80 50,80L50,70ZM50,90C27.909,90 10,72.092 10,50L0,50C0,77.614 22.386,100 50,100L50,90ZM10,50C10,27.909 27.909,10 50,10L50,0C22.386,0 0,22.386 0,50L10,50ZM50,10C72.092,10 90,27.909 90,50L100,50C100,22.386 77.614,0 50,0L50,10ZM90,50C90,72.092 72.092,90 50,90L50,100C77.614,100 100,77.614 100,50L90,50ZM50,55C44.477,55 40,50.523 40,45L30,45C30,56.046 38.954,65 50,65L50,55ZM40,45C40,39.477 44.477,35 50,35L50,25C38.954,25 30,33.954 30,45L40,45ZM50,35C55.523,35 60,39.477 60,45L70,45C70,33.954 61.046,25 50,25L50,35ZM60,45C60,50.523 55.523,55 50,55L50,65C61.046,65 70,56.046 70,45L60,45Z" fill="#00B5EC"/>
</svg>
