<svg width="64" height="64" viewBox="0 0 64 64" fill="none" xmlns="http://www.w3.org/2000/svg" xmlns:xlink="http://www.w3.org/1999/xlink">
<path d="M56.665,27.275L56.665,14.786C56.665,6.623 49.928,0 41.64,0L20.395,0C12.119,0 5.37,6.636 5.37,14.786L5.37,27.275C2.216,28.802 0.008,32.006 0.008,35.74L0.008,62.007L20.672,62.007L20.672,59.42L41.337,59.42L41.337,62.007L62.002,62.007L62.002,35.74C62.027,32.006 59.819,28.789 56.665,27.275ZM15.513,38.756L15.513,43.928L15.513,56.847L5.18,56.847L5.18,35.74C5.18,33.722 6.593,32.031 8.486,31.603L8.511,31.603C8.839,31.527 9.142,31.489 9.432,31.489L11.248,31.489C13.595,31.489 15.513,33.394 15.513,35.753L15.513,38.756ZM41.35,43.916L20.685,43.916L20.685,38.743L41.35,38.743L41.35,43.916ZM46.522,56.834L46.522,43.916L46.522,38.743L46.522,35.728C46.522,33.381 48.427,31.464 50.786,31.464L52.59,31.464C52.881,31.464 53.183,31.502 53.511,31.577L53.537,31.577C55.429,32.006 56.842,33.697 56.842,35.715L56.842,56.834L46.522,56.834Z" fill="#00B5EC"/>
</svg>
