<svg width="64" height="58" viewBox="0 0 64 58" fill="none" xmlns="http://www.w3.org/2000/svg" xmlns:xlink="http://www.w3.org/1999/xlink">
<path d="M52.356,19.25L62.098,28.361C63.276,29.477 62.94,30.338 61.343,30.338L54.036,30.338L54.036,54.142C54.036,55.775 52.692,57.236 51.096,57.236L38.413,57.236L38.413,40.562C38.413,38.929 36.986,37.469 35.39,37.469L27.411,37.469C25.814,37.469 24.387,38.929 24.387,40.562L24.387,57.236L11.705,57.236C10.109,57.236 8.682,55.775 8.682,54.142L8.682,30.338L1.458,30.338C-0.139,30.338 -0.475,29.477 0.702,28.361L29.174,1.892C30.351,0.775 32.367,0.775 33.624,1.892L40.09,7.821L40.09,3.094C40.09,1.46 41.518,0 43.114,0L49.413,0C51.01,0 52.354,1.46 52.354,3.094L52.356,19.25Z" fill="#00B5EC"/>
</svg>
